<mxfile host="65bd71144e" pages="2">
    <diagram id="zSjIGsfIqzgdJoucJFG7" name="Shapes">
        <mxGraphModel dx="747" dy="636" grid="1" gridSize="10" guides="1" tooltips="1" connect="1" arrows="1" fold="1" page="1" pageScale="1" pageWidth="827" pageHeight="1169" math="0" shadow="0">
            <root>
                <mxCell id="0"/>
                <mxCell id="1" parent="0"/>
                <mxCell id="j6w8L0ZZZIGy8gcrGI2n-1" value="Input / Output" style="shape=parallelogram;html=1;strokeWidth=2;perimeter=parallelogramPerimeter;whiteSpace=wrap;rounded=1;arcSize=12;size=0.23;" vertex="1" parent="1">
                    <mxGeometry x="60" y="480" width="120" height="50" as="geometry"/>
                </mxCell>
                <mxCell id="j6w8L0ZZZIGy8gcrGI2n-2" value="Start / End" style="strokeWidth=2;html=1;shape=mxgraph.flowchart.start_1;whiteSpace=wrap;" vertex="1" parent="1">
                    <mxGeometry x="80" y="400" width="80" height="60" as="geometry"/>
                </mxCell>
                <mxCell id="j6w8L0ZZZIGy8gcrGI2n-3" value="Process" style="verticalLabelPosition=bottom;verticalAlign=top;html=1;shape=process;whiteSpace=wrap;rounded=1;size=0.14;arcSize=6;" vertex="1" parent="1">
                    <mxGeometry x="70" y="560" width="100" height="60" as="geometry"/>
                </mxCell>
                <mxCell id="j6w8L0ZZZIGy8gcrGI2n-4" value="Decision" style="strokeWidth=2;html=1;shape=mxgraph.flowchart.decision;whiteSpace=wrap;" vertex="1" parent="1">
                    <mxGeometry x="230" y="520" width="100" height="100" as="geometry"/>
                </mxCell>
                <mxCell id="j6w8L0ZZZIGy8gcrGI2n-5" value="Flow" style="verticalLabelPosition=bottom;verticalAlign=top;html=1;strokeWidth=2;shape=mxgraph.arrows2.arrow;dy=0.6;dx=40;notch=0;" vertex="1" parent="1">
                    <mxGeometry x="240" y="415" width="80" height="30" as="geometry"/>
                </mxCell>
            </root>
        </mxGraphModel>
    </diagram>
</mxfile>